# Jarvis apartment model — estimated geometry
mtllib plan-3d.mtl
o floor_room_bedroom
usemtl room_bedroom
v 0.000000 0.000000 0.000000
v 3.252332 0.000000 0.000000
v 3.252332 3.249976 0.000000
v 0.000000 3.249976 0.000000
v 0.000000 0.000000 0.040000
v 3.252332 0.000000 0.040000
v 3.252332 3.249976 0.040000
v 0.000000 3.249976 0.040000
f 1 2 3 4
f 8 7 6 5
f 1 2 6 5
f 2 3 7 6
f 3 4 8 7
f 4 1 5 8
o floor_room_bathroom
usemtl room_bathroom
v 0.000000 3.249976 0.000000
v 3.252332 3.249976 0.000000
v 3.252332 4.141644 0.000000
v 0.000000 4.141644 0.000000
v 0.000000 3.249976 0.040000
v 3.252332 3.249976 0.040000
v 3.252332 4.141644 0.040000
v 0.000000 4.141644 0.040000
f 9 10 11 12
f 16 15 14 13
f 9 10 14 13
f 10 11 15 14
f 11 12 16 15
f 12 9 13 16
o floor_room_kitchen
usemtl room_kitchen
v 3.252332 0.000000 0.000000
v 5.541278 0.000000 0.000000
v 5.541278 4.141644 0.000000
v 3.252332 4.141644 0.000000
v 3.252332 0.000000 0.040000
v 5.541278 0.000000 0.040000
v 5.541278 4.141644 0.040000
v 3.252332 4.141644 0.040000
f 17 18 19 20
f 24 23 22 21
f 17 18 22 21
f 18 19 23 22
f 19 20 24 23
f 20 17 21 24
o floor_room_living
usemtl room_living
v 5.541278 0.000000 0.000000
v 10.978732 0.000000 0.000000
v 10.978732 2.420762 0.000000
v 10.018732 2.420762 0.000000
v 10.018732 3.431179 0.000000
v 10.978732 3.431179 0.000000
v 10.978732 4.141644 0.000000
v 5.541278 4.141644 0.000000
v 5.541278 0.000000 0.040000
v 10.978732 0.000000 0.040000
v 10.978732 2.420762 0.040000
v 10.018732 2.420762 0.040000
v 10.018732 3.431179 0.040000
v 10.978732 3.431179 0.040000
v 10.978732 4.141644 0.040000
v 5.541278 4.141644 0.040000
f 25 26 27 28 29 30 31 32
f 40 39 38 37 36 35 34 33
f 25 26 34 33
f 26 27 35 34
f 27 28 36 35
f 28 29 37 36
f 29 30 38 37
f 30 31 39 38
f 31 32 40 39
f 32 25 33 40
o floor_room_wc
usemtl room_wc
v 10.018732 2.420762 0.000000
v 10.978732 2.420762 0.000000
v 10.978732 3.431179 0.000000
v 10.018732 3.431179 0.000000
v 10.018732 2.420762 0.040000
v 10.978732 2.420762 0.040000
v 10.978732 3.431179 0.040000
v 10.018732 3.431179 0.040000
f 41 42 43 44
f 48 47 46 45
f 41 42 46 45
f 42 43 47 46
f 43 44 48 47
f 44 41 45 48
o floor_room_office
usemtl room_office
v 10.978732 0.000000 0.000000
v 14.300000 0.000000 0.000000
v 14.300000 2.420762 0.000000
v 10.978732 2.420762 0.000000
v 10.978732 0.000000 0.040000
v 14.300000 0.000000 0.040000
v 14.300000 2.420762 0.040000
v 10.978732 2.420762 0.040000
f 49 50 51 52
f 56 55 54 53
f 49 50 54 53
f 50 51 55 54
f 51 52 56 55
f 52 49 53 56
o wall_00
usemtl walls
v 0.000000 0.040000 0.040000
v 3.252332 0.040000 0.040000
v 3.252332 -0.040000 0.040000
v 0.000000 -0.040000 0.040000
v 0.000000 0.040000 2.600000
v 3.252332 0.040000 2.600000
v 3.252332 -0.040000 2.600000
v 0.000000 -0.040000 2.600000
f 57 58 59 60
f 64 63 62 61
f 57 58 62 61
f 58 59 63 62
f 59 60 64 63
f 60 57 61 64
o wall_01
usemtl walls
v 3.212332 0.000000 0.040000
v 3.212332 3.249976 0.040000
v 3.292332 3.249976 0.040000
v 3.292332 0.000000 0.040000
v 3.212332 0.000000 2.600000
v 3.212332 3.249976 2.600000
v 3.292332 3.249976 2.600000
v 3.292332 0.000000 2.600000
f 65 66 67 68
f 72 71 70 69
f 65 66 70 69
f 66 67 71 70
f 67 68 72 71
f 68 65 69 72
o wall_02
usemtl walls
v 0.000000 3.289976 0.040000
v 3.252332 3.289976 0.040000
v 3.252332 3.209976 0.040000
v 0.000000 3.209976 0.040000
v 0.000000 3.289976 2.600000
v 3.252332 3.289976 2.600000
v 3.252332 3.209976 2.600000
v 0.000000 3.209976 2.600000
f 73 74 75 76
f 80 79 78 77
f 73 74 78 77
f 74 75 79 78
f 75 76 80 79
f 76 73 77 80
o wall_03
usemtl walls
v 0.040000 3.249976 0.040000
v 0.040000 0.000000 0.040000
v -0.040000 0.000000 0.040000
v -0.040000 3.249976 0.040000
v 0.040000 3.249976 2.600000
v 0.040000 0.000000 2.600000
v -0.040000 0.000000 2.600000
v -0.040000 3.249976 2.600000
f 81 82 83 84
f 88 87 86 85
f 81 82 86 85
f 82 83 87 86
f 83 84 88 87
f 84 81 85 88
o wall_04
usemtl walls
v 3.212332 3.249976 0.040000
v 3.212332 4.141644 0.040000
v 3.292332 4.141644 0.040000
v 3.292332 3.249976 0.040000
v 3.212332 3.249976 2.600000
v 3.212332 4.141644 2.600000
v 3.292332 4.141644 2.600000
v 3.292332 3.249976 2.600000
f 89 90 91 92
f 96 95 94 93
f 89 90 94 93
f 90 91 95 94
f 91 92 96 95
f 92 89 93 96
o wall_05
usemtl walls
v 3.252332 4.101644 0.040000
v 0.000000 4.101644 0.040000
v 0.000000 4.181644 0.040000
v 3.252332 4.181644 0.040000
v 3.252332 4.101644 2.600000
v 0.000000 4.101644 2.600000
v 0.000000 4.181644 2.600000
v 3.252332 4.181644 2.600000
f 97 98 99 100
f 104 103 102 101
f 97 98 102 101
f 98 99 103 102
f 99 100 104 103
f 100 97 101 104
o wall_06
usemtl walls
v 0.040000 4.141644 0.040000
v 0.040000 3.249976 0.040000
v -0.040000 3.249976 0.040000
v -0.040000 4.141644 0.040000
v 0.040000 4.141644 2.600000
v 0.040000 3.249976 2.600000
v -0.040000 3.249976 2.600000
v -0.040000 4.141644 2.600000
f 105 106 107 108
f 112 111 110 109
f 105 106 110 109
f 106 107 111 110
f 107 108 112 111
f 108 105 109 112
o wall_07
usemtl walls
v 3.252332 0.040000 0.040000
v 5.541278 0.040000 0.040000
v 5.541278 -0.040000 0.040000
v 3.252332 -0.040000 0.040000
v 3.252332 0.040000 2.600000
v 5.541278 0.040000 2.600000
v 5.541278 -0.040000 2.600000
v 3.252332 -0.040000 2.600000
f 113 114 115 116
f 120 119 118 117
f 113 114 118 117
f 114 115 119 118
f 115 116 120 119
f 116 113 117 120
o wall_08
usemtl walls
v 5.581278 4.141644 0.040000
v 5.581278 0.000000 0.040000
v 5.501278 0.000000 0.040000
v 5.501278 4.141644 0.040000
v 5.581278 4.141644 2.600000
v 5.581278 0.000000 2.600000
v 5.501278 0.000000 2.600000
v 5.501278 4.141644 2.600000
f 121 122 123 124
f 128 127 126 125
f 121 122 126 125
f 122 123 127 126
f 123 124 128 127
f 124 121 125 128
o wall_09
usemtl walls
v 5.541278 4.101644 0.040000
v 3.252332 4.101644 0.040000
v 3.252332 4.181644 0.040000
v 5.541278 4.181644 0.040000
v 5.541278 4.101644 2.600000
v 3.252332 4.101644 2.600000
v 3.252332 4.181644 2.600000
v 5.541278 4.181644 2.600000
f 129 130 131 132
f 136 135 134 133
f 129 130 134 133
f 130 131 135 134
f 131 132 136 135
f 132 129 133 136
o wall_10
usemtl walls
v 3.292332 4.141644 0.040000
v 3.292332 0.000000 0.040000
v 3.212332 0.000000 0.040000
v 3.212332 4.141644 0.040000
v 3.292332 4.141644 2.600000
v 3.292332 0.000000 2.600000
v 3.212332 0.000000 2.600000
v 3.212332 4.141644 2.600000
f 137 138 139 140
f 144 143 142 141
f 137 138 142 141
f 138 139 143 142
f 139 140 144 143
f 140 137 141 144
o wall_11
usemtl walls
v 5.541278 0.040000 0.040000
v 10.978732 0.040000 0.040000
v 10.978732 -0.040000 0.040000
v 5.541278 -0.040000 0.040000
v 5.541278 0.040000 2.600000
v 10.978732 0.040000 2.600000
v 10.978732 -0.040000 2.600000
v 5.541278 -0.040000 2.600000
f 145 146 147 148
f 152 151 150 149
f 145 146 150 149
f 146 147 151 150
f 147 148 152 151
f 148 145 149 152
o wall_12
usemtl walls
v 11.018732 2.420762 0.040000
v 11.018732 0.000000 0.040000
v 10.938732 0.000000 0.040000
v 10.938732 2.420762 0.040000
v 11.018732 2.420762 2.600000
v 11.018732 0.000000 2.600000
v 10.938732 0.000000 2.600000
v 10.938732 2.420762 2.600000
f 153 154 155 156
f 160 159 158 157
f 153 154 158 157
f 154 155 159 158
f 155 156 160 159
f 156 153 157 160
o wall_13
usemtl walls
v 10.018732 2.460762 0.040000
v 10.978732 2.460762 0.040000
v 10.978732 2.380762 0.040000
v 10.018732 2.380762 0.040000
v 10.018732 2.460762 2.600000
v 10.978732 2.460762 2.600000
v 10.978732 2.380762 2.600000
v 10.018732 2.380762 2.600000
f 161 162 163 164
f 168 167 166 165
f 161 162 166 165
f 162 163 167 166
f 163 164 168 167
f 164 161 165 168
o wall_14
usemtl walls
v 10.058732 3.431179 0.040000
v 10.058732 2.420762 0.040000
v 9.978732 2.420762 0.040000
v 9.978732 3.431179 0.040000
v 10.058732 3.431179 2.600000
v 10.058732 2.420762 2.600000
v 9.978732 2.420762 2.600000
v 9.978732 3.431179 2.600000
f 169 170 171 172
f 176 175 174 173
f 169 170 174 173
f 170 171 175 174
f 171 172 176 175
f 172 169 173 176
o wall_15
usemtl walls
v 10.978732 3.391179 0.040000
v 10.018732 3.391179 0.040000
v 10.018732 3.471179 0.040000
v 10.978732 3.471179 0.040000
v 10.978732 3.391179 2.600000
v 10.018732 3.391179 2.600000
v 10.018732 3.471179 2.600000
v 10.978732 3.471179 2.600000
f 177 178 179 180
f 184 183 182 181
f 177 178 182 181
f 178 179 183 182
f 179 180 184 183
f 180 177 181 184
o wall_16
usemtl walls
v 10.938732 3.431179 0.040000
v 10.938732 4.141644 0.040000
v 11.018732 4.141644 0.040000
v 11.018732 3.431179 0.040000
v 10.938732 3.431179 2.600000
v 10.938732 4.141644 2.600000
v 11.018732 4.141644 2.600000
v 11.018732 3.431179 2.600000
f 185 186 187 188
f 192 191 190 189
f 185 186 190 189
f 186 187 191 190
f 187 188 192 191
f 188 185 189 192
o wall_17
usemtl walls
v 10.978732 4.101644 0.040000
v 5.541278 4.101644 0.040000
v 5.541278 4.181644 0.040000
v 10.978732 4.181644 0.040000
v 10.978732 4.101644 2.600000
v 5.541278 4.101644 2.600000
v 5.541278 4.181644 2.600000
v 10.978732 4.181644 2.600000
f 193 194 195 196
f 200 199 198 197
f 193 194 198 197
f 194 195 199 198
f 195 196 200 199
f 196 193 197 200
o wall_18
usemtl walls
v 10.938732 2.420762 0.040000
v 10.938732 3.431179 0.040000
v 11.018732 3.431179 0.040000
v 11.018732 2.420762 0.040000
v 10.938732 2.420762 2.600000
v 10.938732 3.431179 2.600000
v 11.018732 3.431179 2.600000
v 11.018732 2.420762 2.600000
f 201 202 203 204
f 208 207 206 205
f 201 202 206 205
f 202 203 207 206
f 203 204 208 207
f 204 201 205 208
o wall_19
usemtl walls
v 10.978732 0.040000 0.040000
v 14.300000 0.040000 0.040000
v 14.300000 -0.040000 0.040000
v 10.978732 -0.040000 0.040000
v 10.978732 0.040000 2.600000
v 14.300000 0.040000 2.600000
v 14.300000 -0.040000 2.600000
v 10.978732 -0.040000 2.600000
f 209 210 211 212
f 216 215 214 213
f 209 210 214 213
f 210 211 215 214
f 211 212 216 215
f 212 209 213 216
o wall_20
usemtl walls
v 14.260000 0.000000 0.040000
v 14.260000 2.420762 0.040000
v 14.340000 2.420762 0.040000
v 14.340000 0.000000 0.040000
v 14.260000 0.000000 2.600000
v 14.260000 2.420762 2.600000
v 14.340000 2.420762 2.600000
v 14.340000 0.000000 2.600000
f 217 218 219 220
f 224 223 222 221
f 217 218 222 221
f 218 219 223 222
f 219 220 224 223
f 220 217 221 224
o wall_21
usemtl walls
v 14.300000 2.380762 0.040000
v 10.978732 2.380762 0.040000
v 10.978732 2.460762 0.040000
v 14.300000 2.460762 0.040000
v 14.300000 2.380762 2.600000
v 10.978732 2.380762 2.600000
v 10.978732 2.460762 2.600000
v 14.300000 2.460762 2.600000
f 225 226 227 228
f 232 231 230 229
f 225 226 230 229
f 226 227 231 230
f 227 228 232 231
f 228 225 229 232
o opening_window_bedroom_01
usemtl windows
v 1.250000 0.050000 0.850000
v 2.250000 0.050000 0.850000
v 2.250000 -0.050000 0.850000
v 1.250000 -0.050000 0.850000
v 1.250000 0.050000 2.150000
v 2.250000 0.050000 2.150000
v 2.250000 -0.050000 2.150000
v 1.250000 -0.050000 2.150000
f 233 234 235 236
f 240 239 238 237
f 233 234 238 237
f 234 235 239 238
f 235 236 240 239
f 236 233 237 240
o opening_window_kitchen_01
usemtl windows
v 3.900000 0.050000 0.850000
v 4.900000 0.050000 0.850000
v 4.900000 -0.050000 0.850000
v 3.900000 -0.050000 0.850000
v 3.900000 0.050000 2.150000
v 4.900000 0.050000 2.150000
v 4.900000 -0.050000 2.150000
v 3.900000 -0.050000 2.150000
f 241 242 243 244
f 248 247 246 245
f 241 242 246 245
f 242 243 247 246
f 243 244 248 247
f 244 241 245 248
o opening_window_living_01
usemtl windows
v 6.250000 0.050000 0.850000
v 7.300000 0.050000 0.850000
v 7.300000 -0.050000 0.850000
v 6.250000 -0.050000 0.850000
v 6.250000 0.050000 2.150000
v 7.300000 0.050000 2.150000
v 7.300000 -0.050000 2.150000
v 6.250000 -0.050000 2.150000
f 249 250 251 252
f 256 255 254 253
f 249 250 254 253
f 250 251 255 254
f 251 252 256 255
f 252 249 253 256
o opening_window_living_02
usemtl windows
v 8.450000 0.050000 0.850000
v 9.500000 0.050000 0.850000
v 9.500000 -0.050000 0.850000
v 8.450000 -0.050000 0.850000
v 8.450000 0.050000 2.150000
v 9.500000 0.050000 2.150000
v 9.500000 -0.050000 2.150000
v 8.450000 -0.050000 2.150000
f 257 258 259 260
f 264 263 262 261
f 257 258 262 261
f 258 259 263 262
f 259 260 264 263
f 260 257 261 264
o opening_window_office_01
usemtl windows
v 12.050000 0.050000 0.850000
v 13.100000 0.050000 0.850000
v 13.100000 -0.050000 0.850000
v 12.050000 -0.050000 0.850000
v 12.050000 0.050000 2.150000
v 13.100000 0.050000 2.150000
v 13.100000 -0.050000 2.150000
v 12.050000 -0.050000 2.150000
f 265 266 267 268
f 272 271 270 269
f 265 266 270 269
f 266 267 271 270
f 267 268 272 271
f 268 265 269 272
o opening_door_main_entrance
usemtl doors
v 10.928732 3.431179 0.040000
v 10.928732 4.141644 0.040000
v 11.028732 4.141644 0.040000
v 11.028732 3.431179 0.040000
v 10.928732 3.431179 2.100000
v 10.928732 4.141644 2.100000
v 11.028732 4.141644 2.100000
v 11.028732 3.431179 2.100000
f 273 274 275 276
f 280 279 278 277
f 273 274 278 277
f 274 275 279 278
f 275 276 280 279
f 276 273 277 280
o opening_door_wc
usemtl doors
v 9.968732 2.560000 0.040000
v 9.968732 3.360000 0.040000
v 10.068732 3.360000 0.040000
v 10.068732 2.560000 0.040000
v 9.968732 2.560000 2.100000
v 9.968732 3.360000 2.100000
v 10.068732 3.360000 2.100000
v 10.068732 2.560000 2.100000
f 281 282 283 284
f 288 287 286 285
f 281 282 286 285
f 282 283 287 286
f 283 284 288 287
f 284 281 285 288
o opening_door_living_office
usemtl doors
v 10.928732 0.450000 0.040000
v 10.928732 1.350000 0.040000
v 11.028732 1.350000 0.040000
v 11.028732 0.450000 0.040000
v 10.928732 0.450000 2.100000
v 10.928732 1.350000 2.100000
v 11.028732 1.350000 2.100000
v 11.028732 0.450000 2.100000
f 289 290 291 292
f 296 295 294 293
f 289 290 294 293
f 290 291 295 294
f 291 292 296 295
f 292 289 293 296
o opening_door_kitchen_living
usemtl doors
v 5.491278 0.450000 0.040000
v 5.491278 1.350000 0.040000
v 5.591278 1.350000 0.040000
v 5.591278 0.450000 0.040000
v 5.491278 0.450000 2.100000
v 5.491278 1.350000 2.100000
v 5.591278 1.350000 2.100000
v 5.591278 0.450000 2.100000
f 297 298 299 300
f 304 303 302 301
f 297 298 302 301
f 298 299 303 302
f 299 300 304 303
f 300 297 301 304
o opening_door_bedroom_kitchen
usemtl doors
v 3.202332 0.450000 0.040000
v 3.202332 1.350000 0.040000
v 3.302332 1.350000 0.040000
v 3.302332 0.450000 0.040000
v 3.202332 0.450000 2.100000
v 3.202332 1.350000 2.100000
v 3.302332 1.350000 2.100000
v 3.302332 0.450000 2.100000
f 305 306 307 308
f 312 311 310 309
f 305 306 310 309
f 306 307 311 310
f 307 308 312 311
f 308 305 309 312
o opening_door_bathroom_bedroom
usemtl doors
v 1.850000 3.299976 0.040000
v 2.650000 3.299976 0.040000
v 2.650000 3.199976 0.040000
v 1.850000 3.199976 0.040000
v 1.850000 3.299976 2.100000
v 2.650000 3.299976 2.100000
v 2.650000 3.199976 2.100000
v 1.850000 3.199976 2.100000
f 313 314 315 316
f 320 319 318 317
f 313 314 318 317
f 314 315 319 318
f 315 316 320 319
f 316 313 317 320
